<svg width="60" height="20" viewBox="0 0 60 20" fill="none" xmlns="http://www.w3.org/2000/svg">
<g clip-path="url(#clip0_7112_1491)">
<path d="M15.8337 9.99984H4.16699M4.16699 9.99984L10.0003 15.8332M4.16699 9.99984L10.0003 4.1665" stroke="#475467" stroke-width="1.66667" stroke-linecap="round" stroke-linejoin="round"/>
<path d="M28 15.0065V4.82471H31.7287C32.4512 4.82471 33.0495 4.94403 33.5234 5.18266C33.9974 5.41798 34.352 5.73782 34.5874 6.14218C34.8227 6.54322 34.9403 6.99564 34.9403 7.49942C34.9403 7.92367 34.8625 8.28162 34.7067 8.57329C34.5509 8.86164 34.3421 9.09365 34.0803 9.26931C33.8217 9.44166 33.5367 9.5676 33.2251 9.64715V9.74658C33.5632 9.76315 33.893 9.87253 34.2145 10.0747C34.5393 10.2736 34.8078 10.557 35.0199 10.9248C35.232 11.2927 35.3381 11.7402 35.3381 12.2672C35.3381 12.7875 35.2154 13.2549 34.9702 13.6692C34.7282 14.0802 34.3537 14.4066 33.8466 14.6486C33.3395 14.8872 32.6915 15.0065 31.9027 15.0065H28ZM29.5362 13.6891H31.7536C32.4893 13.6891 33.0163 13.5465 33.3345 13.2615C33.6527 12.9765 33.8118 12.6202 33.8118 12.1926C33.8118 11.8711 33.7306 11.5761 33.5682 11.3077C33.4058 11.0392 33.1738 10.8254 32.8722 10.6663C32.5739 10.5072 32.2192 10.4277 31.8082 10.4277H29.5362V13.6891ZM29.5362 9.22954H31.5945C31.9392 9.22954 32.2491 9.16325 32.5241 9.03067C32.8026 8.8981 33.023 8.71249 33.1854 8.47385C33.3511 8.2319 33.4339 7.94687 33.4339 7.61874C33.4339 7.19781 33.2865 6.84483 32.9915 6.55979C32.6965 6.27475 32.2441 6.13224 31.6342 6.13224H29.5362V9.22954Z" fill="#475467"/>
<path d="M39.2631 15.1756C38.7792 15.1756 38.3417 15.0861 37.9506 14.9071C37.5595 14.7248 37.2496 14.4613 37.021 14.1166C36.7956 13.7719 36.6829 13.3493 36.6829 12.8489C36.6829 12.418 36.7657 12.0633 36.9315 11.7849C37.0972 11.5065 37.3209 11.2861 37.6026 11.1237C37.8844 10.9613 38.1992 10.8387 38.5472 10.7558C38.8952 10.673 39.2499 10.61 39.6112 10.5669C40.0685 10.5139 40.4397 10.4708 40.7248 10.4376C41.0098 10.4012 41.217 10.3432 41.3462 10.2636C41.4755 10.1841 41.5401 10.0548 41.5401 9.87584V9.84104C41.5401 9.40686 41.4175 9.07045 41.1722 8.83181C40.9303 8.59317 40.569 8.47385 40.0884 8.47385C39.588 8.47385 39.1935 8.58489 38.9052 8.80695C38.6201 9.0257 38.4229 9.26931 38.3136 9.53778L36.9165 9.21959C37.0823 8.75558 37.3242 8.38105 37.6424 8.09601C37.9639 7.80766 38.3335 7.59885 38.7511 7.46959C39.1687 7.33702 39.6078 7.27073 40.0685 7.27073C40.3735 7.27073 40.6966 7.30719 41.038 7.38011C41.3827 7.44971 41.7042 7.57897 42.0025 7.76789C42.3041 7.95681 42.551 8.22693 42.7433 8.57826C42.9355 8.92627 43.0316 9.37868 43.0316 9.9355V15.0065H41.5799V13.9625H41.5202C41.4241 14.1547 41.2799 14.3436 41.0877 14.5293C40.8955 14.7149 40.6486 14.869 40.3469 14.9916C40.0453 15.1142 39.6841 15.1756 39.2631 15.1756ZM39.5863 13.9824C39.9973 13.9824 40.3486 13.9012 40.6403 13.7388C40.9353 13.5764 41.159 13.3642 41.3114 13.1024C41.4672 12.8373 41.5451 12.5539 41.5451 12.2523V11.2679C41.4921 11.3209 41.3893 11.3706 41.2369 11.417C41.0877 11.4601 40.917 11.4982 40.7248 11.5314C40.5326 11.5612 40.3453 11.5894 40.163 11.6159C39.9807 11.6391 39.8282 11.659 39.7056 11.6756C39.4173 11.712 39.1538 11.7733 38.9151 11.8595C38.6798 11.9457 38.4909 12.07 38.3484 12.2324C38.2092 12.3915 38.1396 12.6036 38.1396 12.8687C38.1396 13.2366 38.2754 13.515 38.5472 13.704C38.819 13.8896 39.1654 13.9824 39.5863 13.9824Z" fill="#475467"/>
<path d="M48.2282 15.1606C47.4891 15.1606 46.8527 14.9933 46.3191 14.6585C45.7888 14.3204 45.3811 13.8548 45.0961 13.2615C44.811 12.6682 44.6685 11.9888 44.6685 11.2231C44.6685 10.4476 44.8143 9.76315 45.106 9.16988C45.3977 8.57329 45.8087 8.10761 46.339 7.77286C46.8693 7.43811 47.494 7.27073 48.2132 7.27073C48.7933 7.27073 49.3103 7.37845 49.7644 7.59388C50.2185 7.806 50.5847 8.1043 50.8631 8.48877C51.1448 8.87324 51.3122 9.32234 51.3652 9.83607H49.9185C49.839 9.47812 49.6567 9.16988 49.3716 8.91135C49.0899 8.65283 48.7121 8.52357 48.2381 8.52357C47.8238 8.52357 47.4609 8.63295 47.1493 8.8517C46.8411 9.06713 46.6008 9.37537 46.4284 9.77641C46.2561 10.1741 46.1699 10.6448 46.1699 11.1883C46.1699 11.7452 46.2544 12.2257 46.4235 12.6301C46.5925 13.0345 46.8311 13.3477 47.1394 13.5697C47.4509 13.7918 47.8172 13.9028 48.2381 13.9028C48.5198 13.9028 48.775 13.8515 49.0037 13.7487C49.2357 13.6427 49.4296 13.4918 49.5854 13.2963C49.7445 13.1007 49.8555 12.8654 49.9185 12.5903H51.3652C51.3122 13.0842 51.1515 13.525 50.883 13.9128C50.6145 14.3006 50.2549 14.6055 49.8042 14.8275C49.3567 15.0496 48.8314 15.1606 48.2282 15.1606Z" fill="#475467"/>
<path d="M54.3221 12.4163L54.3121 10.6017H54.5707L57.6133 7.37016H59.3931L55.9229 11.0491H55.6893L54.3221 12.4163ZM52.9549 15.0065V4.82471H54.4414V15.0065H52.9549ZM57.7773 15.0065L55.043 11.3773L56.0671 10.3382L59.6019 15.0065H57.7773Z" fill="#475467"/>
</g>
<defs>
<clipPath id="clip0_7112_1491">
<rect width="59.6019" height="20" fill="white"/>
</clipPath>
</defs>
</svg>
