<svg width="640" height="442" viewBox="0 0 640 442" fill="none" xmlns="http://www.w3.org/2000/svg">
<g clip-path="url(#clip0_6234_7897)">
<path d="M267.818 412.439H173.762C150.541 412.439 146.106 417.918 155.89 421.962C165.674 426.006 118.841 424.049 110.884 431.224C102.796 438.399 123.407 441.139 145.714 441.139H324.956C342.828 441.139 338.393 428.093 327.696 426.397C316.999 424.701 345.046 427.05 355.743 423.267C366.44 419.483 358.743 412.439 267.818 412.439Z" fill="#99ADF9"/>
<path d="M405.055 436.312C402.315 440.095 393.183 441.008 377.66 440.617C365.919 440.225 353.656 439.312 353.656 433.833C353.656 428.354 383.53 429.006 393.966 430.18C402.967 431.224 406.62 434.094 405.055 436.312Z" fill="#C5D3FF"/>
<path d="M134.755 418.049C132.929 420.788 126.667 421.571 115.709 421.571C107.49 421.571 98.8805 421.18 98.6196 417.396C98.3587 413.483 119.362 413.352 126.797 414.005C133.059 414.527 135.799 416.353 134.755 418.049Z" fill="#C5D3FF"/>
<path d="M594.084 409.176H547.512C545.75 409.169 544.062 408.466 542.816 407.219C541.57 405.973 540.867 404.285 540.859 402.523V354.386C540.867 352.624 541.57 350.936 542.816 349.69C544.062 348.443 545.75 347.74 547.512 347.733H594.084C595.846 347.74 597.534 348.443 598.78 349.69C600.027 350.936 600.73 352.624 600.737 354.386V402.523C600.73 404.285 600.027 405.973 598.78 407.219C597.534 408.466 595.846 409.169 594.084 409.176V409.176Z" fill="#C5DFFF"/>
<path d="M591.864 406.958H547.119C545.424 406.956 543.8 406.281 542.602 405.083C541.404 403.885 540.729 402.261 540.727 400.566V354.125C540.729 352.431 541.404 350.806 542.602 349.608C543.8 348.41 545.424 347.736 547.119 347.733H591.864C593.558 347.736 595.183 348.41 596.381 349.608C597.579 350.806 598.253 352.431 598.256 354.125V400.566C598.253 402.261 597.579 403.885 596.381 405.083C595.183 406.281 593.558 406.956 591.864 406.958V406.958Z" fill="#E1ECFF"/>
<path d="M569.949 396.653C580.324 396.653 588.734 388.243 588.734 377.868C588.734 367.493 580.324 359.083 569.949 359.083C559.574 359.083 551.164 367.493 551.164 377.868C551.164 388.243 559.574 396.653 569.949 396.653Z" fill="#C5DFFF"/>
<path d="M562.514 386.347C562.203 386.347 561.904 386.224 561.684 386.004C561.464 385.783 561.34 385.485 561.34 385.173V370.693C561.34 370.382 561.464 370.083 561.684 369.863C561.904 369.643 562.203 369.519 562.514 369.519V369.519C562.825 369.519 563.124 369.643 563.344 369.863C563.564 370.083 563.688 370.382 563.688 370.693V385.173C563.688 385.485 563.564 385.783 563.344 386.004C563.124 386.224 562.825 386.347 562.514 386.347V386.347Z" fill="#1C3177"/>
<path d="M576.08 386.347C575.769 386.347 575.47 386.224 575.25 386.004C575.03 385.783 574.906 385.485 574.906 385.173V370.693C574.906 370.382 575.03 370.083 575.25 369.863C575.47 369.643 575.769 369.519 576.08 369.519V369.519C576.392 369.519 576.69 369.643 576.911 369.863C577.131 370.083 577.254 370.382 577.254 370.693V385.173C577.254 385.485 577.131 385.783 576.911 386.004C576.69 386.224 576.392 386.347 576.08 386.347V386.347Z" fill="#1C3177"/>
<path d="M456.184 327.776C455.269 327.798 454.353 327.754 453.444 327.646C433.224 326.211 419.396 319.297 396.176 283.944C388.088 271.682 382.609 259.158 377.26 247.026C368.128 226.284 360.301 208.282 342.56 199.933C315.295 187.148 288.552 208.282 288.292 208.543C287.736 208.975 287.034 209.172 286.335 209.093C285.635 209.013 284.995 208.663 284.551 208.116C284.108 207.57 283.896 206.872 283.961 206.171C284.026 205.471 284.363 204.823 284.9 204.368C286.074 203.455 314.513 180.887 344.777 195.106C364.345 204.238 372.955 223.936 382.087 244.809C387.305 256.81 392.784 269.203 400.611 280.944C422.658 314.34 435.312 320.862 453.836 322.297C467.664 323.341 475.1 314.992 482.274 306.773C484.673 303.965 487.244 301.307 489.971 298.816C496.269 293.323 503.929 289.628 512.148 288.119C512.491 288.067 512.84 288.084 513.176 288.168C513.513 288.251 513.829 288.4 514.108 288.606C514.386 288.812 514.622 289.071 514.8 289.368C514.979 289.665 515.097 289.994 515.148 290.336C515.2 290.679 515.183 291.028 515.1 291.365C515.016 291.701 514.867 292.017 514.661 292.296C514.455 292.575 514.196 292.81 513.899 292.988C513.603 293.167 513.273 293.285 512.931 293.337C505.747 294.807 499.058 298.085 493.493 302.86C490.941 305.178 488.544 307.662 486.318 310.296C479.013 318.645 470.925 327.776 456.184 327.776Z" fill="#1C3177"/>
<path d="M532.113 279.117L543.071 269.855C543.333 269.632 543.638 269.465 543.966 269.364C544.294 269.263 544.64 269.23 544.982 269.266C545.323 269.303 545.654 269.409 545.954 269.577C546.253 269.746 546.515 269.973 546.724 270.246V270.246C547.109 270.753 547.283 271.389 547.21 272.021C547.137 272.653 546.823 273.232 546.333 273.638L535.244 283.422L532.113 279.117Z" fill="#1C3177"/>
<path d="M525.328 271.29L536.286 262.028C536.548 261.805 536.852 261.638 537.181 261.537C537.509 261.436 537.855 261.403 538.196 261.439C538.538 261.476 538.869 261.582 539.168 261.75C539.468 261.918 539.73 262.146 539.939 262.419V262.419C540.324 262.926 540.498 263.562 540.425 264.194C540.352 264.826 540.037 265.405 539.547 265.811L528.459 275.595L525.328 271.29Z" fill="#1C3177"/>
<path d="M539.807 283.943C536.398 287.832 532.737 291.492 528.849 294.901C522.196 300.641 513.586 299.598 509.672 295.162C509.411 294.901 509.281 294.64 509.02 294.38C507.205 292.075 506.354 289.156 506.646 286.237C506.938 283.318 508.35 280.625 510.585 278.725C515.934 273.768 524.805 266.724 524.805 266.724L535.502 279.117L539.807 283.943Z" fill="#E1ECFF"/>
<path d="M539.806 283.943C536.397 287.832 532.737 291.492 528.848 294.901C522.195 300.641 513.585 299.598 509.672 295.162C509.411 294.901 509.28 294.641 509.02 294.38C513.741 294.398 518.366 293.038 522.326 290.466C526.981 287.051 531.345 283.255 535.371 279.117L539.806 283.943Z" fill="#C5DFFF"/>
<path d="M340.214 383.869H339.692C330.821 383.738 307.731 366.388 301.861 358.3C295.86 350.212 290.511 339.906 297.817 333.253C299.489 331.849 301.524 330.945 303.687 330.644C307.689 330.019 311.78 330.902 315.167 333.123C321.429 337.167 339.04 357.648 343.997 366.388C348.824 374.998 348.693 383.738 340.214 383.869Z" fill="#1C3177"/>
<path d="M340.214 383.869C341.519 383.086 342.432 381.782 343.215 379.173C344.519 374.607 339.953 365.475 324.951 347.994C315.95 337.428 308.253 332.732 303.688 330.644C307.689 330.019 311.78 330.902 315.167 333.123C321.429 337.167 339.04 357.648 343.997 366.388C348.824 374.998 348.694 383.738 340.214 383.869Z" fill="#384D89"/>
<path d="M296.121 338.864C297.426 335.212 304.992 335.864 311.515 342.256C318.037 348.648 327.952 361.302 325.473 366.781C322.994 372.26 313.602 367.825 305.905 360.258C298.208 352.692 294.034 344.735 296.121 338.864Z" fill="#142966"/>
<path d="M312.557 355.169C312.452 357.536 311.829 359.852 310.731 361.952C310.731 361.952 275.639 378.65 231.676 347.994C186.931 316.815 186.801 277.941 186.801 277.549C209.76 255.111 235.59 279.767 235.59 279.767C236.968 289.51 239.874 298.976 244.2 307.814C248.244 315.902 254.114 324.121 262.463 329.6C275.039 337.77 290.132 341.15 304.991 339.123C304.991 339.123 309.165 340.427 311.644 348.385C312.496 350.538 312.81 352.867 312.557 355.169V355.169Z" fill="#E1ECFF"/>
<path d="M312.557 355.169C312.452 357.536 311.829 359.852 310.731 361.952C310.731 361.952 275.639 378.65 231.676 347.994C186.931 316.815 186.801 277.941 186.801 277.549C209.76 255.111 235.59 279.767 235.59 279.767C236.968 289.51 239.874 298.976 244.2 307.814C240.758 310.501 236.932 312.656 232.851 314.206C227.998 315.513 223.003 316.214 217.979 316.294C217.979 316.294 240.025 349.298 272.639 355.299C290.25 358.299 303.817 356.995 312.557 355.169Z" fill="#C5DFFF"/>
<path d="M263.37 361.82C263.018 361.818 262.675 361.703 262.393 361.492C262.111 361.28 261.905 360.984 261.805 360.646C261.722 360.432 261.684 360.204 261.693 359.975C261.701 359.746 261.755 359.521 261.853 359.314C261.95 359.107 262.089 358.921 262.26 358.769C262.431 358.617 262.631 358.501 262.848 358.428C262.979 358.428 270.023 355.689 272.111 349.949C273.446 346.575 273.584 342.845 272.502 339.382C272.339 338.966 272.343 338.503 272.513 338.09C272.683 337.677 273.006 337.345 273.415 337.164C273.831 337.001 274.294 337.005 274.707 337.176C275.12 337.346 275.452 337.669 275.633 338.077C277 342.342 276.861 346.947 275.241 351.123C272.502 358.428 264.283 361.428 263.892 361.559C263.841 361.649 263.764 361.723 263.671 361.769C263.578 361.816 263.473 361.833 263.37 361.82V361.82Z" fill="#C5DFFF"/>
<path d="M233.11 348.385C232.895 348.396 232.681 348.363 232.479 348.29C232.277 348.217 232.092 348.104 231.934 347.958C231.776 347.813 231.649 347.637 231.559 347.441C231.47 347.246 231.421 347.035 231.414 346.82C231.41 346.377 231.566 345.949 231.854 345.613C232.142 345.277 232.542 345.057 232.98 344.994C233.11 344.994 242.242 344.341 246.808 338.34C249.535 334.828 251.046 330.524 251.112 326.078C251.078 325.628 251.223 325.183 251.517 324.841C251.811 324.498 252.228 324.286 252.678 324.252C253.128 324.217 253.573 324.362 253.915 324.656C254.258 324.95 254.47 325.367 254.504 325.817C254.571 331.111 252.822 336.268 249.547 340.428C243.938 347.603 233.632 348.255 233.11 348.385V348.385Z" fill="#C5DFFF"/>
<path d="M171.273 323.729C170.725 324.985 170.024 326.168 169.186 327.251C167.732 329.138 165.855 330.657 163.707 331.687C162.232 332.447 160.647 332.975 159.011 333.252C159.011 333.252 140.617 315.38 124.571 283.55C108.526 251.85 107.352 215.323 107.352 215.323C108.703 214.59 110.097 213.936 111.526 213.366C115.749 211.692 120.336 211.152 124.832 211.801C128.157 212.216 131.358 213.327 134.225 215.062C134.225 215.062 135.268 245.327 145.966 272.592C156.663 299.987 172.317 316.163 172.317 316.163C172.649 318.733 172.288 321.345 171.273 323.729V323.729Z" fill="#E1ECFF"/>
<path d="M171.272 323.731C165.532 318.643 154.574 307.033 144.007 284.595C131.353 257.722 126.265 223.152 124.961 211.803C128.286 212.218 131.487 213.329 134.354 215.064C134.354 215.064 135.397 245.329 146.094 272.594C156.791 299.989 172.446 316.165 172.446 316.165C172.69 318.745 172.286 321.346 171.272 323.731V323.731Z" fill="#F8FBFF"/>
<path d="M163.707 331.688C162.232 332.449 160.647 332.977 159.011 333.254C159.011 333.254 140.617 315.382 124.571 283.551C108.526 251.851 107.352 215.324 107.352 215.324C108.703 214.591 110.097 213.937 111.526 213.368C112.439 225.108 116.744 263.722 135.007 293.987C147.531 314.599 157.576 325.818 163.707 331.688Z" fill="#C5DFFF"/>
<path d="M200.103 350.473C195.599 352.913 190.383 353.698 185.361 352.691C177.404 350.864 174.403 348.255 174.403 348.255C174.403 348.255 171.794 344.342 173.751 342.124L174.012 341.863C175.693 340.471 177.723 339.569 179.882 339.254C182.365 341.196 185.082 342.818 187.97 344.081C191.362 345.255 197.363 344.081 199.581 345.516C200.02 345.836 200.354 346.281 200.54 346.792C200.725 347.303 200.755 347.858 200.624 348.386C200.616 349.113 200.438 349.828 200.103 350.473Z" fill="#E1ECFF"/>
<path d="M200.103 350.473C195.599 352.914 190.383 353.698 185.361 352.691C177.404 350.865 174.403 348.256 174.403 348.256C174.403 348.256 171.794 344.342 173.751 342.125C176.099 344.342 181.709 349.169 188.231 349.952C192.428 350.466 196.687 349.928 200.624 348.386C200.616 349.113 200.438 349.828 200.103 350.473Z" fill="#C5DFFF"/>
<path d="M197.628 346.821C192.377 347.686 186.988 346.719 182.365 344.082C180.318 343.063 178.566 341.536 177.277 339.646C177.286 338.794 177.463 337.951 177.799 337.168C178.135 336.384 178.623 335.675 179.234 335.08C180.278 334.167 181.974 333.776 184.583 334.559C184.583 334.559 189.67 338.994 198.15 335.993C206.629 332.993 206.107 331.167 207.934 330.645C209.238 330.254 210.934 332.21 211.325 334.428C211.57 335.43 211.479 336.484 211.065 337.428C209.592 339.834 207.638 341.91 205.326 343.527C203.014 345.143 200.393 346.264 197.628 346.821V346.821Z" fill="#E1ECFF"/>
<path d="M197.628 346.822C192.377 347.687 186.988 346.72 182.365 344.082C180.318 343.063 178.566 341.536 177.277 339.647C177.286 338.794 177.463 337.952 177.799 337.168C178.135 336.385 178.623 335.675 179.234 335.081C182.365 338.212 189.149 343.821 196.584 342.386C202.183 341.163 207.332 338.408 211.456 334.429C211.701 335.43 211.609 336.485 211.195 337.429C209.677 339.823 207.695 341.888 205.364 343.501C203.034 345.115 200.403 346.244 197.628 346.822V346.822Z" fill="#C5DFFF"/>
<path d="M196.194 338.212C191.21 339.061 186.087 338.138 181.713 335.603C179.756 334.675 178.087 333.232 176.887 331.429C176.906 329.771 177.56 328.184 178.713 326.993C179.757 326.08 181.322 325.689 183.801 326.472C183.801 326.472 188.627 330.646 196.715 327.776C204.804 324.906 204.282 323.21 205.978 322.688C207.152 322.297 208.848 324.254 209.239 326.341C209.478 327.3 209.386 328.311 208.978 329.211C207.598 331.524 205.746 333.521 203.543 335.072C201.341 336.622 198.837 337.692 196.194 338.212V338.212Z" fill="#E1ECFF"/>
<path d="M196.194 338.212C191.21 339.06 186.087 338.137 181.713 335.603C179.756 334.675 178.087 333.232 176.887 331.428C176.906 329.771 177.56 328.184 178.713 326.993C181.583 329.993 188.106 335.342 195.15 333.907C200.443 332.703 205.312 330.089 209.239 326.341C209.478 327.3 209.386 328.311 208.978 329.211C207.598 331.524 205.746 333.521 203.543 335.071C201.341 336.622 198.837 337.692 196.194 338.212V338.212Z" fill="#C5DFFF"/>
<path d="M195.283 331.688C190.952 333.151 186.247 333.059 181.977 331.427C180.131 330.871 178.465 329.836 177.15 328.427C177.046 327.688 177.097 326.935 177.299 326.216C177.501 325.498 177.85 324.829 178.324 324.252C179.107 323.339 180.542 322.817 182.89 323.078C182.89 323.078 187.717 326.079 194.631 322.556C201.545 318.904 200.892 317.469 202.327 316.686C203.371 316.164 205.067 317.599 205.719 319.426C206.025 320.262 206.071 321.172 205.85 322.035C203.723 326.509 199.93 329.973 195.283 331.688V331.688Z" fill="#E1ECFF"/>
<path d="M195.283 331.688C190.952 333.152 186.247 333.059 181.977 331.427C180.131 330.872 178.465 329.836 177.15 328.427C177.046 327.688 177.097 326.935 177.299 326.217C177.501 325.498 177.85 324.829 178.324 324.253C181.325 326.47 187.717 330.384 193.848 328.166C198.502 326.408 202.57 323.38 205.589 319.426C205.895 320.262 205.94 321.172 205.719 322.035C204.716 324.261 203.275 326.263 201.482 327.922C199.689 329.58 197.581 330.861 195.283 331.688V331.688Z" fill="#C5DFFF"/>
<path d="M190.713 325.427C190.373 327.188 189.938 328.93 189.408 330.645C188.33 334.49 186.658 338.143 184.451 341.472C183.507 342.691 182.46 343.826 181.32 344.864C179.427 346.723 177.093 348.069 174.537 348.778C174.537 348.778 164.492 339.124 161.622 335.863C159.754 333.795 158.011 331.617 156.404 329.34C155.944 326.839 155.944 324.275 156.404 321.774C156.739 319.557 157.688 317.479 159.143 315.773C159.904 315.042 160.734 314.386 161.622 313.816C164.544 312.524 167.836 312.338 170.884 313.294C170.884 313.294 180.537 319.295 184.842 321.643C186.927 322.693 188.895 323.961 190.713 325.427V325.427Z" fill="#E1ECFF"/>
<path d="M190.716 325.427C190.376 327.188 189.941 328.93 189.411 330.645C185.889 328.634 182.491 326.412 179.236 323.992C173.573 320.252 167.693 316.855 161.625 313.816C164.547 312.524 167.839 312.338 170.887 313.294C170.887 313.294 180.541 319.295 184.846 321.643C186.931 322.693 188.899 323.961 190.716 325.427V325.427Z" fill="#F8FBFF"/>
<path d="M181.32 344.733C179.383 346.532 177.064 347.87 174.537 348.647C174.537 348.647 164.492 338.863 161.622 335.732C159.754 333.664 158.011 331.486 156.404 329.209C155.944 326.708 155.944 324.144 156.404 321.643C160.448 326.209 171.275 337.95 178.842 342.907C179.755 343.69 180.668 344.211 181.32 344.733Z" fill="#C5DFFF"/>
<path d="M144.014 311.337C142.892 311.252 141.791 310.987 140.753 310.554C140.38 310.34 140.104 309.989 139.982 309.576C139.861 309.163 139.903 308.719 140.101 308.337C140.185 308.147 140.307 307.976 140.458 307.834C140.609 307.692 140.786 307.582 140.981 307.509C141.175 307.436 141.382 307.402 141.589 307.41C141.796 307.418 142 307.467 142.188 307.554C142.318 307.684 145.971 309.38 150.798 306.249C155.625 303.119 156.407 299.205 156.407 299.074C156.422 298.86 156.484 298.652 156.589 298.465C156.694 298.278 156.838 298.116 157.013 297.992C157.187 297.867 157.387 297.782 157.598 297.744C157.809 297.706 158.026 297.715 158.234 297.77C158.654 297.879 159.019 298.138 159.259 298.499C159.5 298.86 159.599 299.297 159.538 299.727C159.538 299.988 158.625 305.206 152.494 309.25C149.936 310.769 146.985 311.496 144.014 311.337V311.337Z" fill="#C5DFFF"/>
<path d="M130.055 285.117C128.442 284.947 126.861 284.551 125.358 283.943C124.985 283.728 124.709 283.378 124.587 282.965C124.466 282.551 124.509 282.107 124.706 281.725C124.781 281.543 124.891 281.378 125.031 281.239C125.17 281.101 125.336 280.992 125.519 280.919C125.701 280.846 125.897 280.81 126.093 280.814C126.29 280.818 126.484 280.862 126.663 280.942V280.942C126.793 281.073 131.359 283.29 137.36 280.551C143.23 277.942 144.274 274.159 144.274 273.898C144.309 273.696 144.385 273.505 144.497 273.334C144.61 273.164 144.757 273.019 144.929 272.909C145.1 272.798 145.293 272.725 145.495 272.693C145.697 272.661 145.903 272.671 146.1 272.724C146.506 272.875 146.84 273.174 147.034 273.562C147.227 273.949 147.267 274.395 147.144 274.811C147.144 275.072 145.709 280.29 138.404 283.682C135.799 284.898 132.916 285.393 130.055 285.117V285.117Z" fill="#C5DFFF"/>
<path d="M120.142 255.764C118.032 255.722 115.985 255.04 114.271 253.808C113.948 253.516 113.743 253.116 113.694 252.683C113.646 252.25 113.759 251.815 114.01 251.46C114.122 251.275 114.274 251.119 114.455 251.002C114.636 250.885 114.841 250.812 115.055 250.787C115.269 250.761 115.486 250.785 115.689 250.857C115.893 250.928 116.077 251.045 116.228 251.199C116.359 251.199 119.229 253.416 125.621 252.112C133.709 250.416 135.926 247.285 136.057 247.155C136.17 246.975 136.319 246.821 136.495 246.703C136.671 246.585 136.87 246.504 137.079 246.467C137.288 246.431 137.502 246.438 137.708 246.489C137.914 246.54 138.107 246.633 138.275 246.763C138.598 247.055 138.803 247.455 138.851 247.888C138.9 248.321 138.787 248.756 138.535 249.111C138.275 249.503 135.405 253.286 126.273 255.373C124.26 255.806 122.194 255.938 120.142 255.764V255.764Z" fill="#C5DFFF"/>
<path d="M139.452 233.98C133.517 236.677 127.054 238.014 120.536 237.893C116.502 237.933 112.504 237.133 108.795 235.545C107.414 234.976 106.135 234.182 105.012 233.197C105.012 233.197 105.143 230.849 104.751 223.152C103.447 198.888 114.405 195.757 121.58 195.496C123.306 195.491 125.022 195.755 126.667 196.279C129.379 197.305 131.816 198.946 133.786 201.074C135.755 203.202 137.203 205.758 138.017 208.541C140.234 216.499 139.452 233.98 139.452 233.98Z" fill="#1C3177"/>
<path d="M123.404 210.498C115.185 214.934 111.793 212.064 111.793 212.064C111.793 212.064 109.836 218.717 108.923 231.892C108.793 233.197 108.793 234.501 108.662 235.545C107.281 234.976 106.003 234.182 104.879 233.197C104.879 233.197 105.01 230.849 104.618 223.152C103.314 198.888 114.272 195.757 121.447 195.496C123.173 195.491 124.89 195.755 126.534 196.279C128.622 199.801 130.97 206.454 123.404 210.498Z" fill="#384D89"/>
<path d="M289.998 251.2C289.607 253.287 289.216 255.244 288.694 257.201C285.563 269.333 280.084 279.117 272.387 285.509C250.341 303.903 220.076 313.687 181.201 288.509C150.153 268.42 121.584 222.892 111.278 205.281C108.669 200.845 107.234 198.106 107.234 198.106C107.234 198.106 125.106 197.192 153.284 184.278C167.181 177.779 180.492 170.098 193.072 161.318C218.51 143.577 233.251 127.009 241.731 114.094C251.776 98.9618 253.211 89.0474 253.211 89.0474C253.211 89.0474 255.689 93.6132 259.994 103.658C268.507 124.399 275.825 145.61 281.91 167.188C291.433 200.062 294.042 229.153 289.998 251.2Z" fill="#E1ECFF"/>
<path d="M259.992 103.658C256.31 110.885 252.08 117.819 247.338 124.4C233.648 142.874 216.666 158.662 197.244 170.971C184.928 179.062 171.97 186.13 158.5 192.104C135.279 202.41 119.234 204.758 111.146 205.15C108.537 200.714 107.102 197.975 107.102 197.975C107.102 197.975 124.974 197.062 153.151 184.147C167.048 177.649 180.359 169.967 192.939 161.187C218.378 143.446 233.119 126.878 241.598 113.963C251.643 98.8309 253.078 88.9165 253.078 88.9165C255.639 93.7057 257.947 98.6262 259.992 103.658V103.658Z" fill="#1C3177"/>
<path d="M288.694 257.201C285.563 269.333 280.084 279.117 272.387 285.509C250.341 303.903 220.076 313.687 181.201 288.509C150.153 268.42 121.584 222.892 111.278 205.281C108.669 200.845 107.234 198.106 107.234 198.106C107.234 198.106 125.106 197.193 153.284 184.278C164.373 201.498 188.898 237.111 213.031 258.114C241.079 282.639 273.04 268.159 288.694 257.201Z" fill="#C5DFFF"/>
<path d="M158.5 192.235C135.279 202.541 119.234 204.889 111.146 205.281C108.537 200.845 107.102 198.106 107.102 198.106C107.102 198.106 124.974 197.193 153.151 184.278C154.717 186.626 156.543 189.365 158.5 192.235Z" fill="#142966"/>
<path d="M286.342 238.545C283.081 225.109 278.645 208.15 273.036 190.147C264.035 160.926 253.859 138.358 248.25 128.574C256.077 116.703 257.512 111.876 257.512 111.876C257.512 111.876 259.469 115.529 262.861 123.356C269.495 139.586 275.201 156.18 279.95 173.058C287.516 198.627 289.603 221.326 286.342 238.545Z" fill="#F8FBFF"/>
<path d="M259.99 103.658C256.308 110.885 252.078 117.819 247.336 124.4C245.249 120.356 243.422 116.833 241.727 113.963C251.771 98.8309 253.206 88.9165 253.206 88.9165C253.206 88.9165 255.815 93.7432 259.99 103.658Z" fill="#384D89"/>
<path d="M219.159 249.504C219.159 249.504 207.419 258.375 183.546 268.289C176.893 271.029 170.37 273.377 164.5 275.334L162.934 273.768C146.236 257.723 131.234 236.981 121.059 221.327C120.407 220.413 119.885 219.5 119.363 218.717C132.986 215.053 146.292 210.298 159.151 204.498C181.198 194.714 186.807 190.279 186.807 190.279L219.159 249.504Z" fill="#E1ECFF"/>
<path d="M215.508 249.374C215.508 249.374 204.941 257.853 182.503 266.724C175.589 269.464 168.675 271.812 162.805 273.769C146.107 257.723 131.105 236.981 120.93 221.327L123.017 220.805C135.594 217.346 147.891 212.942 159.805 207.629C180.155 198.497 185.895 195.497 185.895 195.497L215.508 249.374Z" fill="#1C3177"/>
<path d="M157.327 254.461C156.902 254.471 156.487 254.333 156.153 254.07L141.803 241.285L140.89 244.025C140.818 244.242 140.702 244.442 140.549 244.613C140.397 244.784 140.212 244.923 140.004 245.02C139.797 245.118 139.572 245.172 139.343 245.181C139.115 245.189 138.886 245.151 138.673 245.068C138.455 244.996 138.255 244.88 138.084 244.727C137.913 244.575 137.775 244.39 137.677 244.183C137.58 243.975 137.525 243.75 137.517 243.522C137.508 243.293 137.547 243.064 137.629 242.851L139.455 237.633C139.56 237.367 139.718 237.125 139.92 236.923C140.122 236.721 140.363 236.563 140.629 236.459C140.924 236.397 141.228 236.4 141.52 236.468C141.813 236.536 142.088 236.666 142.325 236.85L154.979 248.069L154.327 242.981C154.251 242.602 154.314 242.208 154.506 241.872C154.698 241.537 155.005 241.282 155.371 241.155L198.55 222.5C198.764 222.404 198.995 222.352 199.229 222.346C199.464 222.34 199.697 222.381 199.915 222.465C200.134 222.55 200.333 222.678 200.502 222.841C200.671 223.003 200.806 223.198 200.898 223.413C200.994 223.627 201.047 223.858 201.053 224.092C201.059 224.327 201.018 224.56 200.933 224.778C200.848 224.997 200.721 225.196 200.558 225.365C200.395 225.534 200.201 225.669 199.985 225.761L157.98 243.894L159.154 252.374C159.211 252.735 159.154 253.106 158.991 253.434C158.827 253.761 158.565 254.029 158.241 254.2C157.95 254.33 157.643 254.418 157.327 254.461V254.461Z" fill="#FFCE94"/>
<path d="M253.21 89.0472C253.21 89.0472 251.253 103.006 236.251 122.443C227.641 133.662 214.596 146.707 195.028 160.013C162.936 181.929 137.629 191.191 122.496 195.236C117.466 196.673 112.313 197.634 107.103 198.105C107.103 198.105 74.3592 142.272 79.7077 91.6562C81.1427 78.4805 85.1867 67.5225 91.318 58.5213C95.6745 52.0379 101.152 46.3834 107.494 41.8233C125.627 28.7781 150.022 24.2123 173.764 27.0822C217.074 32.4308 253.21 89.0472 253.21 89.0472Z" fill="#FEC272"/>
<path d="M253.208 89.0474C253.208 89.0474 252.295 95.3091 247.338 105.223C244.228 111.361 240.513 117.173 236.25 122.574C227.64 133.793 214.594 146.838 195.027 160.144C160.457 183.625 133.714 192.627 119.234 196.149C115.248 197.15 111.192 197.847 107.102 198.236C107.102 197.845 107.232 167.841 156.021 129.749C205.071 91.2651 253.208 89.0474 253.208 89.0474Z" fill="#FCAD4F"/>
<path d="M247.343 105.223C244.232 111.361 240.518 117.173 236.254 122.573C227.644 133.792 214.599 146.837 195.031 160.144C160.461 183.625 133.719 192.626 119.238 196.149C124.717 183.625 136.719 165.101 163.723 143.968C188.153 124.642 216.805 111.367 247.343 105.223V105.223Z" fill="#F99D3A"/>
<path d="M253.209 89.0472C253.209 89.0472 251.252 103.006 236.25 122.443C231.571 114.281 226.295 106.476 220.466 99.092C220.466 99.092 201.289 116.442 185.635 104.049C169.98 91.5258 181.721 68.5661 181.721 68.5661C170.257 57.3638 155.887 49.5917 140.237 46.1283C129.413 43.809 118.419 42.3693 107.363 41.8233C125.496 28.7781 149.891 24.2123 173.633 27.0822C217.074 32.4308 253.209 89.0472 253.209 89.0472Z" fill="#FFDBB3"/>
<path d="M122.629 195.236C117.599 196.673 112.445 197.634 107.236 198.106C107.236 198.106 74.492 142.272 79.8405 91.6564C81.2755 78.4807 85.3195 67.5227 91.4508 58.5215C88.8736 87.9034 92.0642 117.506 100.843 145.664C106.359 162.901 113.661 179.515 122.629 195.236V195.236Z" fill="#FFDBB3"/>
<path d="M271.602 422.483C271.62 423.312 271.576 424.14 271.471 424.962C270.95 432.659 247.338 434.094 230.901 434.876C214.724 435.659 197.635 431.093 203.506 425.745L203.766 425.484C207.941 421.962 216.029 417.918 225.03 414.656C230.234 412.732 235.549 411.12 240.945 409.83C247.99 408.134 262.34 404.742 267.036 408.264C268.016 409.041 268.817 410.02 269.384 411.134C270.985 414.697 271.744 418.58 271.602 422.483V422.483Z" fill="#1C3177"/>
<path d="M271.602 422.483C271.62 423.312 271.576 424.14 271.471 424.962C270.949 432.659 247.338 434.094 230.901 434.876C214.724 435.659 197.635 431.093 203.506 425.745C207.028 427.832 214.724 430.311 230.77 429.658C252.686 428.745 265.992 425.092 271.602 422.483Z" fill="#384D89"/>
<path d="M269.248 411.134C267.832 412.386 266.252 413.439 264.552 414.265C258.29 417.396 239.244 420.788 227.634 418.831C222.546 417.918 222.938 416.352 224.895 414.656C230.099 412.732 235.413 411.12 240.81 409.83C247.854 408.134 262.204 404.742 266.9 408.264C267.88 409.041 268.681 410.02 269.248 411.134V411.134Z" fill="#142966"/>
<path d="M239.899 348.517C245.117 381.913 264.163 407.482 264.163 407.482C262.644 409.445 260.789 411.123 258.684 412.439C256.929 413.538 255.045 414.414 253.074 415.048C249.762 415.945 246.31 416.211 242.899 415.831C240.697 415.612 238.516 415.219 236.376 414.657C236.376 414.657 203.894 372.781 199.85 325.036C195.806 277.29 221.505 253.287 221.505 253.287C221.697 253.182 221.873 253.051 222.027 252.895C226.219 250.312 231.042 248.933 235.967 248.91C240.891 248.887 245.727 250.221 249.943 252.765C250.892 253.271 251.807 253.838 252.683 254.461C263.25 261.375 264.815 268.419 264.815 268.419C259.879 272.98 255.658 278.257 252.292 284.074C246.943 293.205 234.68 315.121 239.899 348.517Z" fill="#E1ECFF"/>
<path d="M239.898 348.517C245.116 381.913 264.162 407.482 264.162 407.482C262.643 409.445 260.788 411.123 258.683 412.439C249.16 399.263 226.331 359.345 227.113 321.383C227.766 286.683 245.768 262.549 252.813 254.461C263.379 261.375 264.945 268.419 264.945 268.419C260.009 272.98 255.787 278.257 252.421 284.074C246.942 293.205 234.68 315.121 239.898 348.517Z" fill="#C5DFFF"/>
<path d="M242.766 415.701C240.564 415.482 238.383 415.089 236.244 414.527C236.244 414.527 203.761 372.651 199.717 324.906C195.673 277.16 221.372 253.157 221.372 253.157C221.564 253.053 221.74 252.921 221.894 252.766C216.937 262.941 205.848 289.292 206.892 319.035C208.196 357.258 224.764 386.74 236.374 405.526C238.592 409.309 240.809 412.7 242.766 415.701Z" fill="#F8FBFF"/>
<path d="M217.985 381.782C217.762 381.794 217.54 381.753 217.336 381.662C217.132 381.571 216.952 381.434 216.811 381.261C216.481 380.94 216.285 380.506 216.26 380.047C216.236 379.587 216.386 379.136 216.681 378.782C219.953 375.78 223.886 373.591 228.161 372.39C235.857 370.042 244.337 372.651 244.728 372.781C245.172 372.928 245.542 373.241 245.76 373.654C245.979 374.067 246.03 374.549 245.902 374.999C245.755 375.442 245.442 375.812 245.029 376.031C244.616 376.25 244.134 376.301 243.685 376.173C243.554 376.173 235.857 373.825 229.204 375.782C222.551 377.869 219.29 381.13 219.29 381.261C219.131 381.447 218.929 381.591 218.702 381.682C218.475 381.773 218.229 381.807 217.985 381.782V381.782Z" fill="#C5DFFF"/>
<path d="M204.54 340.037C204.219 340.048 203.902 339.968 203.625 339.806C203.349 339.645 203.123 339.408 202.974 339.124C202.846 338.921 202.76 338.693 202.724 338.456C202.687 338.218 202.7 337.975 202.761 337.743C202.822 337.51 202.93 337.293 203.079 337.104C203.228 336.915 203.415 336.759 203.626 336.646C208.778 333.829 214.47 332.139 220.324 331.688C226.214 331.535 232.006 333.222 236.892 336.515C237.087 336.647 237.253 336.817 237.38 337.015C237.507 337.214 237.591 337.436 237.628 337.669C237.664 337.902 237.653 338.139 237.593 338.367C237.534 338.595 237.429 338.808 237.283 338.994C237.152 339.189 236.981 339.355 236.783 339.482C236.584 339.608 236.362 339.693 236.129 339.729C235.897 339.766 235.659 339.755 235.431 339.695C235.203 339.636 234.99 339.53 234.805 339.385C234.674 339.385 228.152 334.819 220.455 335.211C215.138 335.611 209.973 337.169 205.322 339.776C205.192 340.037 204.801 340.037 204.54 340.037Z" fill="#C5DFFF"/>
<path d="M240.288 305.593C240.065 305.604 239.843 305.563 239.639 305.472C239.435 305.382 239.255 305.244 239.114 305.071C238.984 304.94 229.33 296.2 219.677 295.026C210.284 293.852 204.544 297.896 204.544 298.026C204.159 298.29 203.688 298.397 203.227 298.324C202.766 298.251 202.351 298.005 202.066 297.635C201.802 297.25 201.696 296.779 201.768 296.318C201.841 295.857 202.088 295.441 202.457 295.156C202.718 294.896 209.371 290.069 220.199 291.504C230.896 292.939 241.071 302.07 241.593 302.462C241.771 302.611 241.917 302.796 242.021 303.004C242.125 303.213 242.185 303.44 242.197 303.673C242.21 303.905 242.174 304.138 242.092 304.356C242.011 304.574 241.885 304.773 241.723 304.94C241.319 305.293 240.82 305.52 240.288 305.593Z" fill="#C5DFFF"/>
<path d="M354.179 268.548C352.307 274.069 348.689 278.831 343.874 282.115C336.046 287.203 331.611 287.725 331.611 287.725C331.611 287.725 326.523 286.942 326.523 283.681V283.29C326.843 280.871 327.787 278.578 329.263 276.636C332.799 276.021 336.255 275.015 339.569 273.636C343.221 271.81 347.135 265.939 350.005 265.287C350.597 265.18 351.208 265.245 351.763 265.477C352.319 265.708 352.795 266.095 353.136 266.592C353.616 267.164 353.972 267.831 354.179 268.548V268.548Z" fill="#E1ECFF"/>
<path d="M354.179 268.548C352.307 274.069 348.689 278.83 343.874 282.115C336.046 287.203 331.611 287.725 331.611 287.725C331.611 287.725 326.523 286.942 326.523 283.681C330.046 283.42 338.395 282.376 344.265 277.68C348.062 274.689 351.102 270.846 353.136 266.461C353.606 267.088 353.96 267.795 354.179 268.548V268.548Z" fill="#C5DFFF"/>
<path d="M349.35 267.896C345.766 272.836 340.69 276.494 334.87 278.332C332.51 279.267 329.95 279.581 327.434 279.245C326.773 278.607 326.256 277.834 325.919 276.979C325.581 276.124 325.43 275.206 325.477 274.288C325.607 272.723 326.651 271.027 329.391 269.461C329.391 269.461 336.826 268.548 341.523 259.417C346.219 250.285 344.262 249.372 345.436 247.545C346.219 246.241 349.089 246.371 351.046 247.545C352 248.08 352.704 248.971 353.002 250.024C354.177 253.285 354.046 261.504 349.35 267.896Z" fill="#E1ECFF"/>
<path d="M349.35 267.896C345.766 272.836 340.69 276.494 334.87 278.332C332.51 279.267 329.95 279.581 327.434 279.245C326.773 278.607 326.256 277.834 325.919 276.979C325.581 276.124 325.43 275.206 325.477 274.288C330.304 274.027 340.218 272.723 345.045 265.548C348.651 260.208 350.727 253.982 351.046 247.545C352 248.08 352.704 248.972 353.002 250.024C354.177 253.285 354.046 261.504 349.35 267.896Z" fill="#C5DFFF"/>
<path d="M340.612 263.852C337.199 268.568 332.346 272.048 326.784 273.767C324.542 274.627 322.116 274.896 319.74 274.549C319.114 273.945 318.627 273.212 318.311 272.402C317.996 271.591 317.86 270.721 317.914 269.853C318.044 268.418 319.088 266.722 321.697 265.287C321.697 265.287 328.741 264.504 333.177 255.764C337.612 247.154 335.786 246.241 336.829 244.415C337.612 243.241 340.221 243.241 342.178 244.415C343.091 244.937 343.786 245.77 344.135 246.763C345.178 250.024 345.048 257.851 340.612 263.852Z" fill="#E1ECFF"/>
<path d="M340.612 263.852C337.199 268.568 332.346 272.048 326.784 273.767C324.542 274.627 322.116 274.896 319.74 274.549C319.114 273.945 318.627 273.213 318.311 272.402C317.996 271.591 317.86 270.721 317.914 269.853C322.479 269.592 331.872 268.418 336.568 261.635C339.941 256.537 341.92 250.645 342.308 244.545C343.222 245.067 343.916 245.901 344.265 246.894C344.838 249.82 344.81 252.833 344.182 255.749C343.554 258.664 342.34 261.421 340.612 263.852Z" fill="#C5DFFF"/>
<path d="M337.097 275.463C337.204 278.65 336.579 281.818 335.271 284.725C334.512 286.393 333.5 287.933 332.27 289.291C332.27 289.291 299.266 300.901 264.565 271.941C246.694 257.069 232.344 237.632 222.69 222.369C217.484 214.204 212.737 205.755 208.471 197.061C208.471 197.061 205.731 188.582 210.819 181.276C212.728 178.511 215.34 176.304 218.385 174.884C224.517 171.753 229.604 171.493 233.648 172.536C237.797 173.629 241.494 176.003 244.215 179.32C244.215 179.32 249.303 190.539 256.869 204.367C265.74 220.412 278.002 239.98 289.743 249.112C311.528 266.071 329.661 259.548 329.661 259.548C331.118 261.075 332.428 262.734 333.575 264.505C335.01 267.245 336.967 271.158 337.097 275.463Z" fill="#E1ECFF"/>
<path d="M256.471 204.106C252.235 210.76 245.899 215.81 238.469 218.455C233.319 220.448 227.92 221.721 222.423 222.238C217.217 214.073 212.469 205.624 208.204 196.931C208.204 196.931 203.507 182.19 217.987 174.623C234.294 166.144 243.817 179.059 243.817 179.059C243.817 179.059 248.905 190.408 256.471 204.106Z" fill="#C5DFFF"/>
<path d="M335.138 284.594C334.379 286.262 333.367 287.802 332.138 289.16C332.138 289.16 299.133 300.77 264.433 271.81C246.561 256.938 232.211 237.501 222.557 222.238C217.351 214.073 212.604 205.624 208.338 196.93C208.338 196.93 205.599 188.451 210.686 181.146C214.991 190.929 233.385 230.848 256.736 253.808C283.479 280.029 297.959 283.29 323.658 284.333C327.833 284.464 331.746 284.594 335.138 284.594Z" fill="#C5DFFF"/>
<path d="M333.175 264.375C326.522 266.332 317.26 267.767 307.606 264.766C289.604 259.157 274.863 247.807 260.383 226.022C248.511 208.019 237.032 181.407 233.379 172.406C237.527 173.499 241.225 175.872 243.946 179.189C243.946 179.189 249.033 190.408 256.599 204.236C265.47 220.282 277.733 239.85 289.473 248.981C311.259 265.94 329.392 259.418 329.392 259.418C330.819 260.936 332.087 262.597 333.175 264.375V264.375Z" fill="#F8FBFF"/>
<path d="M242.778 243.894C240.924 243.901 239.078 243.637 237.299 243.111C236.857 242.933 236.502 242.588 236.311 242.151C236.121 241.713 236.11 241.219 236.281 240.773C236.453 240.328 236.792 239.968 237.227 239.771C237.661 239.573 238.156 239.555 238.604 239.72C238.865 239.85 244.996 241.937 253.215 237.502C258.116 234.76 261.763 230.224 263.39 224.848C263.441 224.625 263.536 224.415 263.669 224.229C263.801 224.043 263.969 223.885 264.163 223.764C264.357 223.642 264.573 223.561 264.798 223.523C265.024 223.485 265.254 223.492 265.477 223.544C265.7 223.595 265.91 223.69 266.096 223.822C266.282 223.955 266.44 224.123 266.562 224.317C266.683 224.511 266.764 224.727 266.802 224.952C266.84 225.177 266.833 225.408 266.782 225.631C265.886 228.807 264.362 231.771 262.301 234.348C260.239 236.925 257.682 239.062 254.78 240.633C251.133 242.751 246.995 243.875 242.778 243.894V243.894Z" fill="#C5DFFF"/>
<path d="M267.694 273.115C267.209 273.115 266.745 272.923 266.402 272.581C266.06 272.238 265.867 271.774 265.867 271.289C265.867 270.805 266.06 270.34 266.402 269.998C266.745 269.655 267.209 269.463 267.694 269.463V269.463C267.824 269.463 275.912 269.332 280.478 263.723C285.174 257.983 284.261 249.895 284.261 249.764C284.235 249.533 284.255 249.299 284.32 249.075C284.384 248.852 284.492 248.643 284.638 248.461C284.783 248.28 284.963 248.128 285.167 248.016C285.371 247.904 285.595 247.833 285.826 247.808C286.29 247.775 286.748 247.919 287.11 248.209C287.473 248.499 287.713 248.914 287.783 249.373C287.783 249.764 288.827 259.027 283.217 265.941C277.608 273.115 268.085 273.115 267.694 273.115Z" fill="#C5DFFF"/>
<path d="M296.389 288.378C296.019 288.381 295.659 288.269 295.355 288.059C295.052 287.849 294.82 287.55 294.693 287.204C294.522 286.754 294.536 286.255 294.732 285.816C294.927 285.376 295.288 285.031 295.736 284.856V284.856C298.023 283.851 300.055 282.344 301.681 280.447C303.307 278.55 304.485 276.312 305.129 273.898C307.086 265.81 304.346 261.114 304.216 260.983C303.973 260.581 303.892 260.101 303.989 259.641C304.085 259.181 304.353 258.775 304.737 258.505C305.14 258.262 305.62 258.181 306.079 258.278C306.539 258.374 306.946 258.642 307.216 259.026C307.347 259.287 310.999 265.158 308.521 274.681C307.724 277.651 306.266 280.403 304.256 282.73C302.245 285.057 299.734 286.899 296.91 288.117C296.78 288.378 296.649 288.378 296.389 288.378Z" fill="#C5DFFF"/>
<path d="M257.517 188.451C257.248 189.789 256.855 191.099 256.343 192.365C254.516 196.8 250.211 204.105 240.427 210.497C225.295 220.281 211.858 216.107 211.858 216.107C205.587 207.16 201.6 196.814 200.248 185.972C199.074 175.928 205.727 168.1 214.337 164.317C220.729 161.578 228.165 161.056 234.166 163.665C248.385 170.057 257.517 188.451 257.517 188.451Z" fill="#1C3177"/>
<path d="M257.523 188.451C257.254 189.789 256.861 191.099 256.349 192.365C256.349 192.234 256.218 192.234 256.218 192.104C244.086 176.058 234.563 172.797 234.563 172.797C234.563 172.797 231.041 181.146 219.43 176.319C211.342 173.058 212.777 167.318 214.473 164.317C220.865 161.578 228.301 161.056 234.302 163.665C248.391 170.057 257.523 188.451 257.523 188.451Z" fill="#384D89"/>
<path d="M99.0173 119.443C97.8455 119.244 96.6421 119.497 95.6495 120.151C94.657 120.805 93.9491 121.81 93.6687 122.965C92.0754 129.551 90.8128 136.212 89.8856 142.924C89.2333 148.403 88.9724 152.969 88.842 156.1C88.8083 157.206 89.1712 158.287 89.865 159.148C90.5588 160.009 91.5378 160.594 92.6251 160.796V160.796C93.236 160.894 93.8604 160.864 94.4596 160.711C95.0588 160.557 95.6203 160.282 96.1092 159.904C96.5981 159.525 97.0043 159.049 97.3025 158.508C97.6007 157.966 97.7848 157.368 97.8432 156.752C98.2426 150.967 99.0271 145.214 100.191 139.533C101.496 132.88 102.409 128.183 103.061 125.052C103.228 123.778 102.902 122.489 102.151 121.446C101.399 120.404 100.279 119.688 99.0173 119.443V119.443Z" fill="#1C3177"/>
<path d="M76.4504 133.402C76.5858 132.788 76.8577 132.213 77.2461 131.72C77.6344 131.226 78.1292 130.827 78.6934 130.551C79.2576 130.275 79.8769 130.13 80.5049 130.127C81.133 130.123 81.7537 130.262 82.3208 130.532C86.2344 132.227 91.9743 134.706 97.4533 136.663C103.063 138.62 108.281 140.576 111.542 141.881C112.611 142.281 113.495 143.061 114.025 144.072C114.554 145.083 114.692 146.254 114.412 147.36V147.36C114.259 147.957 113.987 148.517 113.613 149.006C113.239 149.496 112.77 149.905 112.234 150.209C111.699 150.513 111.107 150.707 110.495 150.778C109.883 150.848 109.263 150.795 108.672 150.621C102.46 148.865 96.3607 146.73 90.4089 144.229C86.1877 142.464 82.0908 140.416 78.1463 138.098C77.4382 137.564 76.9007 136.836 76.5995 136.002C76.2984 135.168 76.2466 134.264 76.4504 133.402V133.402Z" fill="#1C3177"/>
<path d="M155.104 87.6114C153.573 87.3858 152.013 87.7433 150.733 88.6129C149.452 89.4826 148.545 90.8011 148.19 92.3077C146.755 98.8303 144.668 109.788 143.755 118.398C143.103 125.573 142.711 131.443 142.711 135.487C142.656 136.908 143.134 138.298 144.051 139.384C144.968 140.471 146.259 141.175 147.669 141.358V141.358C148.462 141.48 149.272 141.435 150.048 141.227C150.823 141.018 151.547 140.651 152.173 140.148C152.798 139.645 153.312 139.017 153.682 138.305C154.052 137.592 154.27 136.81 154.322 136.009C154.583 130.791 155.365 122.834 156.8 113.702C158.235 104.962 159.409 98.8303 160.062 94.7863C160.238 93.9871 160.248 93.1602 160.09 92.3572C159.933 91.5541 159.611 90.7922 159.146 90.1189C158.681 89.4456 158.082 88.8754 157.386 88.444C156.691 88.0126 155.914 87.7291 155.104 87.6114V87.6114Z" fill="#1C3177"/>
<path d="M126.145 106.397C126.328 105.607 126.68 104.867 127.177 104.227C127.674 103.587 128.304 103.063 129.024 102.691C129.743 102.319 130.535 102.107 131.345 102.071C132.154 102.036 132.962 102.176 133.711 102.483C138.799 104.57 146.235 107.571 153.41 110.049C160.715 112.528 167.499 114.876 171.804 116.441C173.201 116.93 174.364 117.924 175.064 119.228C175.764 120.532 175.951 122.051 175.587 123.486V123.486C175.398 124.27 175.054 125.008 174.575 125.657C174.097 126.307 173.494 126.854 172.801 127.267C172.109 127.68 171.341 127.951 170.542 128.063C169.744 128.176 168.931 128.127 168.151 127.921C160.078 125.82 152.148 123.206 144.409 120.094C138.9 117.971 133.577 115.397 128.493 112.397C127.577 111.719 126.871 110.796 126.456 109.735C126.041 108.673 125.933 107.516 126.145 106.397V106.397Z" fill="#1C3177"/>
<path d="M596.688 336.907C601.105 338.392 605.061 340.999 608.167 344.473C612.994 350.213 613.646 359.475 613.646 359.475L639.998 347.212C639.998 347.212 626.692 352.3 622.256 343.429C617.821 334.559 632.562 320.47 632.562 320.47C632.562 320.47 616.255 333.776 609.863 331.819C603.471 329.862 602.427 321.905 602.427 321.905L596.688 336.907Z" fill="#FEC272"/>
<path d="M571.769 333.907L576.465 334.037L583.771 280.552L567.203 277.421L571.769 333.907Z" fill="#D2E9FF"/>
<path d="M583.25 334.168L594.208 284.074L609.993 291.771L586.12 335.473L583.25 334.168Z" fill="#D2E9FF"/>
<path d="M61.18 81.3504L58.4405 87.3512L1.17188 69.7402L8.86857 47.1719L61.18 81.3504Z" fill="#FEC272"/>
<path d="M69.7921 61.5217L64.7044 68.8271L0 19.516L17.872 0.861328L69.7921 61.5217Z" fill="#FEC272"/>
</g>
<defs>
<clipPath id="clip0_6234_7897">
<rect width="640" height="440.277" fill="white" transform="translate(0 0.861328)"/>
</clipPath>
</defs>
</svg>
