<svg width="18" height="17" viewBox="0 0 18 17" fill="none" xmlns="http://www.w3.org/2000/svg">
<path d="M15.7996 2.30847C14.9148 1.42348 13.7418 0.88541 12.4939 0.792122C11.246 0.698834 10.0061 1.05652 8.99958 1.80014C7.93929 1.0115 6.61957 0.653897 5.30618 0.799336C3.99279 0.944774 2.78328 1.58245 1.92122 2.58396C1.05917 3.58546 0.608597 4.8764 0.660246 6.19682C0.711895 7.51723 1.26193 8.76903 2.19958 9.70014L8.40791 15.9085C8.48538 15.9866 8.57755 16.0486 8.6791 16.0909C8.78065 16.1332 8.88957 16.155 8.99958 16.155C9.10959 16.155 9.21851 16.1332 9.32006 16.0909C9.42161 16.0486 9.51378 15.9866 9.59125 15.9085L15.7996 9.70014C16.2851 9.21491 16.6703 8.63876 16.9331 8.00461C17.1959 7.37046 17.3311 6.69075 17.3311 6.0043C17.3311 5.31786 17.1959 4.63815 16.9331 4.004C16.6703 3.36985 16.2851 2.7937 15.7996 2.30847ZM14.6246 8.52514L8.99958 14.1418L3.37458 8.52514C2.87889 8.02739 2.54122 7.39434 2.40394 6.70542C2.26665 6.0165 2.33585 5.30237 2.60287 4.65263C2.86989 4.00289 3.32283 3.44647 3.90487 3.05316C4.48691 2.65985 5.17213 2.44717 5.87458 2.4418C6.81301 2.4441 7.71216 2.81875 8.37458 3.48347C8.45205 3.56158 8.54422 3.62357 8.64576 3.66588C8.74731 3.70819 8.85624 3.72997 8.96625 3.72997C9.07626 3.72997 9.18518 3.70819 9.28673 3.66588C9.38828 3.62357 9.48044 3.56158 9.55791 3.48347C10.2398 2.89254 11.1208 2.58276 12.0225 2.61682C12.9242 2.65089 13.7793 3.02626 14.4147 3.66696C15.0501 4.30766 15.4184 5.16584 15.445 6.0678C15.4716 6.96976 15.1545 7.84813 14.5579 8.52514H14.6246Z" fill="#757575"/>
</svg>
