<svg width="28" height="28" viewBox="0 0 28 28" fill="none" xmlns="http://www.w3.org/2000/svg">
<path d="M28 14C28 21.732 21.732 28 14 28C6.26801 28 0 21.732 0 14C0 6.26801 6.26801 0 14 0C21.732 0 28 6.26801 28 14ZM2.74424 14C2.74424 20.2164 7.78361 25.2558 14 25.2558C20.2164 25.2558 25.2558 20.2164 25.2558 14C25.2558 7.78361 20.2164 2.74424 14 2.74424C7.78361 2.74424 2.74424 7.78361 2.74424 14Z" fill="#4D4D4D"/>
<path d="M26.6279 14C27.3857 14 28.007 13.3842 27.9328 12.63C27.6671 9.92675 26.619 7.34821 24.9027 5.21751C22.8983 2.72923 20.103 1.00145 16.9811 0.321076C13.8592 -0.359294 10.5985 0.0486901 7.7405 1.47728C4.88248 2.90586 2.59911 5.26909 1.26958 8.17451C-0.0599557 11.0799 -0.355651 14.3527 0.431594 17.4494C1.21884 20.5461 3.04166 23.2803 5.59734 25.198C8.15302 27.1157 11.2878 28.1015 14.4811 27.9917C17.2155 27.8977 19.8519 27.0052 22.0713 25.4392C22.6905 25.0023 22.7504 24.1295 22.255 23.5561C21.7596 22.9826 20.8971 22.9273 20.2676 23.3493C18.5305 24.5138 16.4949 25.1766 14.3868 25.2491C11.8194 25.3374 9.29913 24.5448 7.2444 23.003C5.18968 21.4612 3.72416 19.2629 3.09123 16.7733C2.4583 14.2836 2.69603 11.6523 3.76496 9.31641C4.83388 6.9805 6.66967 5.0805 8.96747 3.93194C11.2653 2.78338 13.8868 2.45537 16.3968 3.00238C18.9067 3.54938 21.154 4.93849 22.7655 6.93902C24.0888 8.5817 24.9179 10.5555 25.1722 12.6312C25.2644 13.3834 25.8701 14 26.6279 14Z" fill="white"/>
</svg>
