<svg width="14" height="17" viewBox="0 0 14 17" fill="none" xmlns="http://www.w3.org/2000/svg">
<path d="M11.1654 5.96712V4.30046C11.1654 3.19539 10.7264 2.13558 9.94498 1.35418C9.16357 0.572776 8.10377 0.133789 6.9987 0.133789C5.89363 0.133789 4.83382 0.572776 4.05242 1.35418C3.27102 2.13558 2.83203 3.19539 2.83203 4.30046V5.96712C2.16899 5.96712 1.53311 6.23051 1.06426 6.69936C0.595423 7.1682 0.332031 7.80408 0.332031 8.46712V14.3005C0.332031 14.9635 0.595423 15.5994 1.06426 16.0682C1.53311 16.5371 2.16899 16.8005 2.83203 16.8005H11.1654C11.8284 16.8005 12.4643 16.5371 12.9331 16.0682C13.402 15.5994 13.6654 14.9635 13.6654 14.3005V8.46712C13.6654 7.80408 13.402 7.1682 12.9331 6.69936C12.4643 6.23051 11.8284 5.96712 11.1654 5.96712ZM4.4987 4.30046C4.4987 3.63741 4.76209 3.00153 5.23093 2.53269C5.69977 2.06385 6.33566 1.80046 6.9987 1.80046C7.66174 1.80046 8.29762 2.06385 8.76647 2.53269C9.23531 3.00153 9.4987 3.63741 9.4987 4.30046V5.96712H4.4987V4.30046ZM11.9987 14.3005C11.9987 14.5215 11.9109 14.7334 11.7546 14.8897C11.5983 15.046 11.3864 15.1338 11.1654 15.1338H2.83203C2.61102 15.1338 2.39906 15.046 2.24278 14.8897C2.0865 14.7334 1.9987 14.5215 1.9987 14.3005V8.46712C1.9987 8.24611 2.0865 8.03415 2.24278 7.87787C2.39906 7.72159 2.61102 7.63379 2.83203 7.63379H11.1654C11.3864 7.63379 11.5983 7.72159 11.7546 7.87787C11.9109 8.03415 11.9987 8.24611 11.9987 8.46712V14.3005Z" fill="#757575"/>
</svg>
