<svg width="18" height="18" viewBox="0 0 18 18" fill="none" xmlns="http://www.w3.org/2000/svg">
<path d="M9.49199 9.83325L7.57533 11.7416C7.49722 11.8191 7.43522 11.9112 7.39292 12.0128C7.35061 12.1143 7.32883 12.2232 7.32883 12.3333C7.32883 12.4433 7.35061 12.5522 7.39292 12.6537C7.43522 12.7553 7.49722 12.8475 7.57533 12.9249C7.65279 13.003 7.74496 13.065 7.84651 13.1073C7.94806 13.1496 8.05698 13.1714 8.16699 13.1714C8.277 13.1714 8.38592 13.1496 8.48747 13.1073C8.58902 13.065 8.68119 13.003 8.75866 12.9249L12.092 9.59159C12.1679 9.51233 12.2273 9.41888 12.267 9.31659C12.3503 9.1137 12.3503 8.88614 12.267 8.68325C12.2273 8.58096 12.1679 8.48751 12.092 8.40825L8.75866 5.07492C8.68096 4.99722 8.58872 4.93559 8.4872 4.89354C8.38568 4.85149 8.27688 4.82984 8.16699 4.82984C8.05711 4.82984 7.9483 4.85149 7.84678 4.89354C7.74527 4.93559 7.65302 4.99722 7.57533 5.07492C7.49763 5.15262 7.43599 5.24486 7.39394 5.34638C7.35189 5.4479 7.33025 5.5567 7.33025 5.66659C7.33025 5.77647 7.35189 5.88528 7.39394 5.98679C7.43599 6.08831 7.49763 6.18055 7.57533 6.25825L9.49199 8.16659H1.50033C1.27931 8.16659 1.06735 8.25438 0.91107 8.41067C0.75479 8.56695 0.666992 8.77891 0.666992 8.99992C0.666992 9.22093 0.75479 9.4329 0.91107 9.58918C1.06735 9.74546 1.27931 9.83325 1.50033 9.83325H9.49199ZM9.00033 0.666587C7.4429 0.659634 5.9147 1.08926 4.58905 1.90675C3.2634 2.72423 2.19337 3.89684 1.50033 5.29159C1.40087 5.4905 1.3845 5.72077 1.45483 5.93175C1.52516 6.14273 1.67641 6.31713 1.87533 6.41659C2.07424 6.51604 2.30451 6.53241 2.51549 6.46208C2.72647 6.39176 2.90087 6.2405 3.00033 6.04159C3.52715 4.97769 4.32852 4.07377 5.32162 3.42324C6.31471 2.77272 7.46351 2.39918 8.64929 2.34125C9.83507 2.28331 11.0148 2.54307 12.0666 3.09368C13.1184 3.64429 14.0041 4.46578 14.6321 5.47325C15.2601 6.48072 15.6077 7.63763 15.639 8.82441C15.6703 10.0112 15.384 11.1848 14.8099 12.2239C14.2358 13.2631 13.3946 14.13 12.3733 14.7353C11.3519 15.3405 10.1875 15.662 9.00033 15.6666C7.75773 15.672 6.53879 15.3269 5.4834 14.671C4.42802 14.015 3.57895 13.0748 3.03366 11.9583C2.9342 11.7593 2.7598 11.6081 2.54882 11.5378C2.33785 11.4674 2.10757 11.4838 1.90866 11.5833C1.70975 11.6827 1.55849 11.8571 1.48816 12.0681C1.41784 12.2791 1.4342 12.5093 1.53366 12.7083C2.19435 14.0378 3.19826 15.1668 4.44155 15.9783C5.68484 16.7898 7.12237 17.2544 8.60543 17.3241C10.0885 17.3937 11.5632 17.0659 12.8771 16.3745C14.191 15.6831 15.2963 14.6532 16.0787 13.3914C16.8611 12.1296 17.2922 10.6817 17.3274 9.19742C17.3626 7.71314 17.0006 6.24641 16.2789 4.94895C15.5571 3.65148 14.5019 2.57039 13.2222 1.81751C11.9426 1.06462 10.485 0.667284 9.00033 0.666587Z" fill="white"/>
</svg>
