<svg width="640" height="206" viewBox="0 0 640 206" fill="none" xmlns="http://www.w3.org/2000/svg">
<circle cx="125.758" cy="28.2914" r="24.9027" stroke="#667085" stroke-width="2.49027"/>
<circle cx="125.758" cy="177.708" r="24.9027" stroke="#667085" stroke-width="2.49027"/>
<circle cx="26.1488" cy="127.903" r="24.9027" stroke="#667085" stroke-width="2.49027"/>
<circle cx="175.563" cy="127.903" r="24.9027" stroke="#667085" stroke-width="2.49027"/>
<circle cx="240.313" cy="103" r="24.9027" stroke="#667085" stroke-width="2.49027"/>
<circle cx="389.727" cy="103" r="24.9027" stroke="#667085" stroke-width="2.49027"/>
<circle cx="315.02" cy="28.2914" r="24.9027" stroke="#667085" stroke-width="2.49027"/>
<circle cx="315.02" cy="177.708" r="24.9027" stroke="#667085" stroke-width="2.49027"/>
<path d="M1.24609 127.903C1.24609 114.149 12.3954 103 26.1488 103H175.565C189.319 103 200.468 114.149 200.468 127.903C200.468 141.656 189.319 152.805 175.565 152.805H26.1488C12.3954 152.805 1.24609 141.656 1.24609 127.903Z" stroke="#667085" stroke-width="2.49027"/>
<path d="M125.758 202.611C112.005 202.611 100.855 191.462 100.855 177.709L100.855 28.2923C100.855 14.5389 112.005 3.38954 125.758 3.38954C139.512 3.38954 150.661 14.5389 150.661 28.2923L150.661 177.709C150.661 191.462 139.512 202.611 125.758 202.611Z" stroke="#667085" stroke-width="2.49027"/>
<path d="M8.89404 145.328C-0.831079 135.603 -0.831078 119.835 8.89404 110.11L107.968 11.0362C117.693 1.31106 133.46 1.31105 143.186 11.0362C152.911 20.7613 152.911 36.5288 143.185 46.254L44.1118 145.328C34.3867 155.053 18.6192 155.053 8.89404 145.328Z" stroke="#667085" stroke-width="2.49027"/>
<circle cx="564.047" cy="28.2914" r="24.9027" stroke="#667085" stroke-width="2.49027"/>
<circle cx="564.047" cy="177.708" r="24.9027" stroke="#667085" stroke-width="2.49027"/>
<circle cx="464.434" cy="127.903" r="24.9027" stroke="#667085" stroke-width="2.49027"/>
<circle cx="613.852" cy="127.903" r="24.9027" stroke="#667085" stroke-width="2.49027"/>
<path d="M439.531 127.903C439.531 114.149 450.681 103 464.434 103H613.85C627.604 103 638.753 114.149 638.753 127.903C638.753 141.656 627.604 152.805 613.85 152.805H464.434C450.681 152.805 439.531 141.656 439.531 127.903Z" stroke="#667085" stroke-width="2.49027"/>
<path d="M564.047 202.611C550.294 202.611 539.145 191.462 539.145 177.709L539.145 28.2923C539.145 14.5389 550.294 3.38954 564.047 3.38954C577.801 3.38954 588.95 14.5389 588.95 28.2923L588.95 177.709C588.95 191.462 577.801 202.611 564.047 202.611Z" stroke="#667085" stroke-width="2.49027"/>
<path d="M447.179 145.328C437.454 135.603 437.454 119.835 447.179 110.11L546.253 11.0362C555.978 1.31106 571.746 1.31105 581.471 11.0362C591.196 20.7613 591.196 36.5288 581.471 46.254L482.397 145.328C472.672 155.053 456.904 155.053 447.179 145.328Z" stroke="#667085" stroke-width="2.49027"/>
<circle cx="315.021" cy="103" r="99.6109" stroke="#667085" stroke-width="2.49027"/>
<circle cx="315.02" cy="103" r="49.8054" stroke="#667085" stroke-width="2.49027"/>
<line x1="1.08853e-07" y1="2.14354" x2="638.755" y2="2.14359" stroke="#667085" stroke-width="2.49027"/>
<line x1="-1.08853e-07" y1="203.856" x2="638.755" y2="203.856" stroke="#667085" stroke-width="2.49027"/>
</svg>
