<svg width="20" height="21" viewBox="0 0 20 21" fill="none" xmlns="http://www.w3.org/2000/svg">
<path d="M10.8159 14.5584V8.34842L13.5077 11.0484C13.6618 11.2025 13.8707 11.289 14.0886 11.289C14.3065 11.289 14.5155 11.2025 14.6695 11.0484C14.8236 10.8944 14.9102 10.6854 14.9102 10.4675C14.9102 10.2496 14.8236 10.0407 14.6695 9.8866L10.5786 5.79569C10.5008 5.72121 10.4091 5.66282 10.3086 5.62387C10.1094 5.54204 9.886 5.54204 9.68681 5.62387C9.58638 5.66282 9.49462 5.72121 9.41681 5.79569L5.3259 9.8866C5.24921 9.96266 5.18834 10.0532 5.14681 10.1529C5.10527 10.2526 5.08388 10.3595 5.08388 10.4675C5.08388 10.5755 5.10527 10.6825 5.14681 10.7822C5.18834 10.8819 5.24921 10.9724 5.3259 11.0484C5.40196 11.1251 5.49245 11.186 5.59215 11.2275C5.69186 11.2691 5.7988 11.2904 5.90681 11.2904C6.01482 11.2904 6.12176 11.2691 6.22146 11.2275C6.32117 11.186 6.41166 11.1251 6.48772 11.0484L9.17954 8.34842V14.5584C9.17954 14.7754 9.26574 14.9835 9.41918 15.137C9.57261 15.2904 9.78072 15.3766 9.99772 15.3766C10.2147 15.3766 10.4228 15.2904 10.5763 15.137C10.7297 14.9835 10.8159 14.7754 10.8159 14.5584Z" fill="#1D2433"/>
</svg>
