<svg width="20" height="20" viewBox="0 0 20 20" fill="none" xmlns="http://www.w3.org/2000/svg">
<g clip-path="url(#clip0_4219_7603)">
<path d="M18.332 10.834C18.111 10.834 17.8991 10.9218 17.7428 11.0781C17.5865 11.2343 17.4987 11.4463 17.4987 11.6673V15.1782C17.498 15.7939 17.2531 16.3843 16.8177 16.8197C16.3823 17.2551 15.792 17.5 15.1762 17.5007H4.8212C4.20544 17.5 3.61508 17.2551 3.17967 16.8197C2.74426 16.3843 2.49936 15.7939 2.4987 15.1782V11.6673C2.4987 11.4463 2.4109 11.2343 2.25462 11.0781C2.09834 10.9218 1.88638 10.834 1.66536 10.834C1.44435 10.834 1.23239 10.9218 1.07611 11.0781C0.919829 11.2343 0.832031 11.4463 0.832031 11.6673V15.1782C0.833134 16.2358 1.25377 17.2498 2.00165 17.9977C2.74952 18.7456 3.76354 19.1662 4.8212 19.1673H15.1762C16.2339 19.1662 17.2479 18.7456 17.9957 17.9977C18.7436 17.2498 19.1643 16.2358 19.1654 15.1782V11.6673C19.1654 11.4463 19.0776 11.2343 18.9213 11.0781C18.765 10.9218 18.553 10.834 18.332 10.834Z" fill="#316BFF"/>
<path d="M5.58804 7.25631L9.16554 3.67881V14.1671C9.16554 14.3882 9.25334 14.6001 9.40962 14.7564C9.5659 14.9127 9.77786 15.0005 9.99887 15.0005C10.2199 15.0005 10.4318 14.9127 10.5881 14.7564C10.7444 14.6001 10.8322 14.3882 10.8322 14.1671V3.67881L14.4097 7.25631C14.5669 7.4081 14.7774 7.4921 14.9959 7.4902C15.2144 7.4883 15.4234 7.40066 15.5779 7.24615C15.7324 7.09165 15.82 6.88264 15.8219 6.66414C15.8238 6.44564 15.7398 6.23514 15.588 6.07797L10.588 1.07797C10.4318 0.921747 10.2198 0.833984 9.99887 0.833984C9.7779 0.833984 9.56598 0.921747 9.40971 1.07797L4.40971 6.07797C4.25791 6.23514 4.17391 6.44564 4.17581 6.66414C4.17771 6.88264 4.26535 7.09165 4.41986 7.24615C4.57437 7.40066 4.78338 7.4883 5.00187 7.4902C5.22037 7.4921 5.43087 7.4081 5.58804 7.25631Z" fill="#316BFF"/>
</g>
<defs>
<clipPath id="clip0_4219_7603">
<rect width="20" height="20" fill="white"/>
</clipPath>
</defs>
</svg>
