<svg width="30" height="30" viewBox="0 0 30 30" fill="none" xmlns="http://www.w3.org/2000/svg">
<rect width="30" height="30" rx="15" fill="#DCE6FF"/>
<path d="M18.1269 15.0032C18.8213 14.4569 19.3282 13.7076 19.577 12.8598C19.8258 12.0119 19.8042 11.1076 19.5151 10.2726C19.226 9.43762 18.6838 8.71351 17.964 8.201C17.2442 7.6885 16.3826 7.41309 15.499 7.41309C14.6153 7.41309 13.7537 7.6885 13.0339 8.201C12.3141 8.71351 11.772 9.43762 11.4829 10.2726C11.1938 11.1076 11.1721 12.0119 11.4209 12.8598C11.6697 13.7076 12.1766 14.4569 12.871 15.0032C11.6811 15.48 10.6428 16.2707 9.86693 17.2911C9.09102 18.3115 8.60657 19.5233 8.46521 20.7974C8.45498 20.8904 8.46317 20.9845 8.48931 21.0744C8.51546 21.1642 8.55904 21.2481 8.61758 21.3211C8.73581 21.4685 8.90777 21.563 9.09563 21.5836C9.28349 21.6043 9.47186 21.5495 9.61932 21.4313C9.76677 21.313 9.86121 21.1411 9.88188 20.9532C10.0374 19.5686 10.6977 18.2898 11.7364 17.3611C12.7752 16.4325 14.1198 15.9191 15.5131 15.9191C16.9065 15.9191 18.251 16.4325 19.2898 17.3611C20.3286 18.2898 20.9888 19.5686 21.1444 20.9532C21.1636 21.1273 21.2467 21.288 21.3775 21.4044C21.5083 21.5209 21.6776 21.5847 21.8527 21.5836H21.9306C22.1163 21.5623 22.286 21.4684 22.4028 21.3224C22.5195 21.1765 22.5739 20.9903 22.554 20.8045C22.4119 19.5268 21.9249 18.3118 21.145 17.2899C20.3651 16.2679 19.3218 15.4774 18.1269 15.0032ZM15.499 14.5003C14.9386 14.5003 14.3908 14.3341 13.9248 14.0228C13.4589 13.7115 13.0957 13.269 12.8813 12.7512C12.6669 12.2335 12.6107 11.6638 12.7201 11.1142C12.8294 10.5646 13.0992 10.0598 13.4955 9.66351C13.8917 9.26726 14.3966 8.99741 14.9462 8.88809C15.4958 8.77876 16.0655 8.83487 16.5832 9.04932C17.101 9.26377 17.5435 9.62692 17.8548 10.0929C18.1661 10.5588 18.3323 11.1066 18.3323 11.667C18.3323 12.4184 18.0338 13.1391 17.5024 13.6704C16.9711 14.2018 16.2504 14.5003 15.499 14.5003Z" fill="#316BFF"/>
</svg>
