<svg width="18" height="17" viewBox="0 0 18 17" fill="none" xmlns="http://www.w3.org/2000/svg">
<path d="M12.0904 9.05849C12.9074 8.4157 13.5038 7.53425 13.7965 6.53677C14.0892 5.53929 14.0637 4.47537 13.7236 3.49304C13.3835 2.51071 12.7457 1.65881 11.8988 1.05587C11.052 0.452919 10.0383 0.128906 8.99878 0.128906C7.95923 0.128906 6.94554 0.452919 6.09872 1.05587C5.2519 1.65881 4.61406 2.51071 4.27395 3.49304C3.93384 4.47537 3.90837 5.53929 4.20108 6.53677C4.49378 7.53425 5.09012 8.4157 5.90711 9.05849C4.50717 9.61935 3.28568 10.5496 2.37285 11.7501C1.46002 12.9506 0.890079 14.3762 0.723777 15.8752C0.711739 15.9846 0.721374 16.0953 0.752131 16.201C0.782888 16.3067 0.834166 16.4054 0.903036 16.4913C1.04213 16.6647 1.24443 16.7758 1.46544 16.8002C1.68646 16.8245 1.90808 16.76 2.08155 16.6209C2.25502 16.4818 2.36613 16.2795 2.39044 16.0585C2.57343 14.4295 3.35018 12.925 4.57229 11.8325C5.7944 10.74 7.37619 10.136 9.01544 10.136C10.6547 10.136 12.2365 10.74 13.4586 11.8325C14.6807 12.925 15.4575 14.4295 15.6404 16.0585C15.6631 16.2633 15.7608 16.4524 15.9147 16.5893C16.0686 16.7263 16.2678 16.8014 16.4738 16.8002H16.5654C16.7839 16.775 16.9835 16.6646 17.1209 16.4929C17.2583 16.3212 17.3222 16.1021 17.2988 15.8835C17.1317 14.3803 16.5587 12.951 15.6412 11.7487C14.7236 10.5463 13.4962 9.61639 12.0904 9.05849ZM8.99878 8.46682C8.33951 8.46682 7.69504 8.27132 7.14688 7.90505C6.59871 7.53878 6.17147 7.01819 5.91918 6.4091C5.66689 5.80001 5.60087 5.12979 5.72949 4.48319C5.85811 3.83658 6.17558 3.24264 6.64175 2.77646C7.10793 2.31029 7.70187 1.99282 8.34848 1.8642C8.99508 1.73558 9.6653 1.8016 10.2744 2.05389C10.8835 2.30618 11.4041 2.73342 11.7703 3.28159C12.1366 3.82975 12.3321 4.47422 12.3321 5.13349C12.3321 6.01754 11.9809 6.86539 11.3558 7.49051C10.7307 8.11563 9.88283 8.46682 8.99878 8.46682Z" fill="#201E21"/>
</svg>
